<svg width="110" height="110" viewBox="0 0 110 110" fill="none" xmlns="http://www.w3.org/2000/svg">
<g clip-path="url(#clip0_2099_899)">
<path d="M110 55C110 24.6243 85.3757 0 55 0C24.6243 0 0 24.6243 0 55C0 85.3757 24.6243 110 55 110C85.3757 110 110 85.3757 110 55Z" fill="url(#paint0_radial_2099_899)"/>
<path d="M55 99C79.3005 99 99 79.3005 99 55C99 30.6995 79.3005 11 55 11C30.6995 11 11 30.6995 11 55C11 79.3005 30.6995 99 55 99Z" fill="white"/>
<path d="M56.5827 26.961C56.2056 26.9746 55.7707 26.8312 55.6342 26.4381C55.4626 25.9438 55.4886 20.7781 55.5383 19.9477C55.5736 19.3582 55.6959 19.1115 56.3008 18.96C56.6557 18.9689 57.0083 19.0901 57.1725 19.4381C57.3096 19.7286 57.3187 25.4085 57.2821 26.0781C57.2565 26.545 57.0139 26.795 56.5827 26.961Z" fill="#0F4D5C"/>
<path d="M66.6464 29.6987C65.9507 29.8187 65.2982 29.0841 65.6453 28.4238C65.825 28.0817 70.197 23.6404 70.8238 23.4207C71.789 23.2249 72.2576 24.0481 71.6159 24.7549C70.8367 25.6128 67.5312 29.1652 66.6464 29.6987Z" fill="#0F4D5C"/>
<path d="M46.5712 29.6953C45.6944 29.6833 41.2584 24.8165 41.152 24.528C40.9346 23.9392 41.3634 23.5817 41.8746 23.4173C42.6249 23.3908 47.0774 28.0373 47.2435 28.4796C47.4513 29.0332 47.058 29.4942 46.5712 29.6953Z" fill="#0F4D5C"/>
<path d="M49.8997 33.6608C50.1097 33.1944 51.8527 31.068 52.2675 30.8787C54.6623 30.737 57.5887 30.876 60.0438 30.8742C60.8945 30.8736 62.1422 32.9628 62.8789 33.6608C64.0175 33.6581 65.1286 33.6435 66.2775 33.6884C68.6834 33.7266 71.0495 35.7671 71.3547 38.1894C71.5241 39.5345 71.4477 41.3093 71.4464 42.7015L71.4427 57.5349C71.4398 58.4718 71.4698 59.4156 71.4465 60.3515C71.4171 61.5366 69.8879 61.6614 69.766 60.4423C69.7082 59.8664 69.7331 59.3312 69.7356 58.7529L69.7369 40.8409C69.7386 37.2925 69.2262 35.3829 65.225 35.3982L63.4522 35.4067C61.336 35.4165 60.9424 34.2547 59.7611 32.6064H56.3062H52.8979C51.6055 34.2432 51.4513 35.406 49.4567 35.4046L47.1155 35.3999C42.8887 35.396 42.3601 36.7465 42.3611 40.7558L42.3626 62.0232C42.3628 62.812 42.4113 66.5277 40.6621 64.407C40.6548 64.3001 40.6487 64.1921 40.6481 64.0848L40.6612 41.0294C40.6577 38.0265 40.5983 35.088 44.18 33.9247C45.2044 33.5919 46.1093 33.6555 47.1782 33.6569L49.8997 33.6608Z" fill="#0F4D5C"/>
<path d="M49.9017 48.6947C46.8111 43.9202 49.9925 37.9003 55.3904 37.2741C61.5866 36.8053 65.4199 43.4059 62.0237 48.6947C63.6525 51.8562 63.0079 55.9591 59.763 57.7431V61.5028C60.3906 61.7056 61.0978 61.8814 61.744 62.0812L66.9806 63.7315C70.9122 64.9627 74.0584 65.9037 75.7942 70.268C76.6865 72.5106 76.4109 77.597 76.3934 80.1776C76.4731 84.9246 73.3646 89.259 69.0092 90.9528C68.1025 91.3051 67.4361 90.2409 67.9974 89.5908C68.1732 89.3868 69.106 89.0475 69.4064 88.8856C72.0405 87.4678 74.0676 84.8798 74.5356 81.8769C74.8248 79.9838 74.7893 74.7199 74.6045 72.7105C74.3677 70.1348 72.6154 67.8462 70.3694 66.7168L70.3757 69.004C70.3764 69.452 70.3829 69.8579 70.3467 70.3236C70.2653 71.3691 68.9753 71.4465 68.7188 70.5698C68.6044 70.1789 68.6514 69.2182 68.6517 68.7639L68.6556 66.1053L65.0872 64.9493L65.0933 67.642C65.0938 68.1326 65.1222 68.6585 65.0522 69.1423C64.9194 70.0611 63.5276 70.1085 63.4082 69.1638C63.3378 68.6059 63.3615 68.0047 63.3617 67.4399L63.3648 64.4047C62.1702 63.994 60.981 63.6362 59.763 63.3051L59.7685 66.047C59.7694 66.4947 59.755 67.0599 59.7464 67.4983C59.7253 68.575 58.2143 68.514 58.1093 67.7925C58.0057 67.0818 58.0591 65.9979 58.0592 65.2386L58.066 54.8552C58.0795 53.008 57.5791 51.3622 55.3904 51.757C52.908 52.5668 53.7373 56.3568 53.7382 58.575L53.739 74.8538C53.745 76.8904 53.7657 79.9858 51.4057 76.6416C49.9132 74.5825 48.4045 72.3956 46.8648 70.3822C45.2372 68.2538 41.6937 70.4901 43.4175 73.2708C45.029 75.8704 46.7101 78.5741 48.2021 81.2431L49.828 84.0848C51.1291 86.3098 52.3675 88.0105 54.8082 89.108C56.871 90.0355 55.9913 91.6124 54.3589 90.8277C52.266 89.7975 50.3024 88.2764 49.107 86.2268C47.0465 82.6936 44.9685 79.163 42.8963 75.6365C42.4928 74.9497 41.8438 74.0943 41.5346 73.381C40.2811 70.4877 42.6072 67.5196 45.7847 67.8986C48.0917 68.1739 50.6351 72.6459 52.0602 74.5234V57.7431C49.1104 55.1933 47.951 52.3902 49.9017 48.6947ZM55.3904 38.9896C51.4734 39.5206 49.2279 43.7876 51.0229 47.3282C52.5664 45.8074 54.623 45.0819 56.7723 45.3172C58.4352 45.5284 59.7258 46.1677 60.9262 47.3282C63.1403 43.1707 59.4975 38.3038 55.3904 38.9896ZM55.8178 46.9835C51.5462 47.3001 48.8509 52.0856 52.0602 55.4515C52.1152 52.7406 52.4454 49.942 56.0644 50.0235L56.3081 50.0304C59.5259 50.4707 59.7749 52.9652 59.763 55.6126C63.1353 52.1293 60.1514 46.721 55.8178 46.9835Z" fill="#0F4D5C"/>
</g>
<defs>
<radialGradient id="paint0_radial_2099_899" cx="0" cy="0" r="1" gradientUnits="userSpaceOnUse" gradientTransform="translate(55 10.45) rotate(117.094) scale(70.2602)">
<stop stop-color="#01EDE3"/>
<stop offset="1" stop-color="#E71D36"/>
</radialGradient>
<clipPath id="clip0_2099_899">
<rect width="110" height="110" fill="white"/>
</clipPath>
</defs>
</svg>
