<svg width="40" height="39" viewBox="0 0 40 39" fill="none" xmlns="http://www.w3.org/2000/svg">
<path d="M33.6232 0H6.37681C2.855 0 0 2.82456 0 6.30882V32.6912C0 36.1754 2.855 39 6.37681 39H33.6232C37.145 39 40 36.1754 40 32.6912V6.30882C40 2.82456 37.145 0 33.6232 0Z" fill="#E71D36"/>
<path d="M32 9.16603C32 7.9698 31.0303 7 29.834 7H10.3397C9.14343 7 8.17363 7.9698 8.17363 9.16603C8.17363 10.3623 9.14343 11.3321 10.3397 11.3321H27.6679V28.6603C27.6679 29.8566 28.6377 30.8263 29.834 30.8263C31.0303 30.8263 32 29.8566 32 28.6603V9.16603ZM8.5316 30.4684L10.0632 32L31.3656 10.6976L29.834 9.16603L28.3024 7.63443L7 28.9367L8.5316 30.4684Z" fill="white"/>
</svg>
