<svg width="110" height="110" viewBox="0 0 110 110" fill="none" xmlns="http://www.w3.org/2000/svg">
<g clip-path="url(#clip0_2099_885)">
<path d="M110 55C110 24.6243 85.3757 0 55 0C24.6243 0 0 24.6243 0 55C0 85.3757 24.6243 110 55 110C85.3757 110 110 85.3757 110 55Z" fill="url(#paint0_radial_2099_885)"/>
<path d="M55 99C79.3005 99 99 79.3005 99 55C99 30.6995 79.3005 11 55 11C30.6995 11 11 30.6995 11 55C11 79.3005 30.6995 99 55 99Z" fill="white"/>
<path d="M48.2434 74.7966L32.2112 74.7986C28.7444 74.802 27.028 73.9582 27.0019 69.2228L27 36.9865C26.9967 30.631 27.4674 28.9979 32.8273 29L36.7088 29.0039L76.9632 29.0029C81.76 29.007 82.0031 31.3881 81.9988 36.7162L82 68.0379C82.0019 73.0594 81.0325 74.8341 76.9181 74.7995L60.6559 74.7966C61.2264 76.9793 61.9237 79.8165 62.3842 82.0442L62.4016 82.1054C62.4997 82.1791 65.8746 82.1523 66.2727 82.1474C66.6312 82.5588 66.8846 83.8134 66.2036 83.9045C65.1808 84.0412 64.0759 83.9904 63.0502 83.9904L44.618 83.9912C43.8526 83.9939 41.7506 84.2064 42.6683 82.3791C43.1647 81.9944 43.8375 82.1343 44.4128 82.1414L46.4671 82.1474C47.0025 79.6891 47.6263 77.2237 48.2434 74.7966ZM31.0038 30.8254C28.1039 31.0254 28.4815 34.0955 28.4835 36.583L28.4842 65.8604H78.0543H80.5399L80.5411 36.5155C80.5414 31.7937 80.6547 30.8202 76.6428 30.8229L31.0038 30.8254ZM28.4842 67.6657C28.4634 72.1639 28.4451 72.9515 32.3661 72.9513L78.0144 73.0069C78.7319 73.0031 79.2381 72.7093 79.7612 72.1257C80.7156 70.8314 80.5473 69.3762 80.5399 67.6657H28.4842ZM49.7502 74.7966C49.2949 76.1991 48.2106 80.8608 48.0239 82.1474H59.1599H60.8635C60.4561 79.8923 59.7386 77.0042 59.1599 74.7966H49.7502Z" fill="#0F4D5C"/>
<path d="M64.4239 39.0568C64.5403 37.5191 64.8153 36.893 66.1229 36.9027C67.1936 36.717 69.6356 36.54 69.7279 38.2459C69.7951 39.4912 69.7848 40.8776 69.7288 42.1445C69.6386 44.1896 65.545 43.7417 64.8082 42.9271C64.3811 42.4549 64.4347 41.5758 64.4239 40.9066L60.3638 40.9054C59.6961 40.9046 58.8767 40.8703 58.2216 40.9066C63.3184 42.2443 67.0937 48.5848 67.7717 54.8397C69.4473 54.6254 69.8988 55.5086 69.89 57.4774C69.8795 59.8138 70.1307 61.7353 67.524 61.499C65.5886 61.4874 64.2827 61.7596 64.4216 58.5897C64.4959 56.8969 64.1196 54.4192 66.2723 54.8397C65.6995 48.1122 61.5304 43.5265 56.3597 42.1841C55.2454 43.7612 53.689 43.8495 52.5803 42.1841C49.7007 42.9895 47.361 44.4516 45.4149 47.291C44.0221 49.3075 42.9891 52.1784 42.7842 54.8397C43.7539 54.8051 44.586 55.2954 44.5922 56.6923C44.5373 58.2864 45.101 61.6546 42.9537 61.493C41.4296 61.3783 39.0633 62.2339 39.1349 59.3205C39.3225 56.6629 38.3928 54.8013 41.3014 54.8397C42.0114 47.9684 45.3316 43.1354 50.5637 40.9066C48.6508 40.9496 46.6216 40.9079 44.6993 40.9066C44.7186 42.9623 44.3675 43.6614 42.6026 43.5572C40.7503 43.4479 39.0921 44.211 39.2899 40.8809C39.4087 38.8831 38.6976 36.7369 41.2531 36.899C42.7709 37.0139 44.8036 36.1991 44.6993 39.0568H52.4471C53.4189 36.882 55.427 37.0181 56.4956 39.0568H64.4239ZM66.1229 38.7069L65.9617 38.7262C65.8324 38.9599 65.8724 41.2133 65.874 41.6204H68.0772L68.1936 41.6003C68.296 41.4056 68.2467 39.0763 68.2461 38.7069H66.1229ZM40.7528 38.7069V41.748C41.576 41.7482 42.4408 41.7654 43.2606 41.748V38.7069H40.7528ZM54.3518 39.4178C53.889 39.4981 53.5639 40.0284 53.6226 40.6075C53.6813 41.1865 54.1018 41.599 54.566 41.5328C54.8713 41.4892 55.1343 41.2438 55.2544 40.8905C55.3746 40.5371 55.3334 40.1303 55.1465 39.8255C54.9597 39.5207 54.6562 39.3651 54.3518 39.4178ZM65.874 56.6197C65.8734 57.6096 65.8528 58.7291 65.874 59.7089C66.7182 59.7122 67.584 59.728 68.4265 59.7089V56.6197C67.8672 56.5533 66.5126 56.623 65.874 56.6197ZM40.572 56.6197C40.5714 57.6046 40.5497 58.7354 40.572 59.7089H43.1413V56.6197H40.572Z" fill="#0F4D5C"/>
<path d="M54.7817 58.3416C54.4666 58.4223 54.1154 58.3441 53.8802 58.0492C52.0127 55.706 51.6884 56.3661 52.2998 53.1564L53.738 45.8123C53.8242 45.3759 53.94 45.2531 54.2399 45.0537C54.5704 45.0228 54.8841 45.0264 55.1105 45.3886C55.2709 45.6453 57.2092 54.869 57.0756 55.4265C56.956 55.9261 55.1932 58.0833 54.7817 58.3416ZM54.4507 49.7633C54.1991 51.2989 53.8423 53.3511 53.4493 54.8399C53.6513 55.1534 54.2296 56.0016 54.5092 56.1709L54.5725 56.1543C54.8886 55.7439 55.2703 55.2677 55.5596 54.8399C55.3877 54.1254 54.5854 49.9683 54.4507 49.7633Z" fill="#0F4D5C"/>
<path d="M56.159 71.3009C55.4761 71.4318 52.7495 71.4055 52.4594 70.904C52.176 70.4138 52.3745 69.7782 52.8105 69.4544L54.7449 69.4456C55.7472 69.4448 57.7778 69.9415 56.159 71.3009Z" fill="#0F4D5C"/>
</g>
<defs>
<radialGradient id="paint0_radial_2099_885" cx="0" cy="0" r="1" gradientUnits="userSpaceOnUse" gradientTransform="translate(55 10.45) rotate(117.094) scale(70.2602)">
<stop stop-color="#01EDE3"/>
<stop offset="1" stop-color="#E71D36"/>
</radialGradient>
<clipPath id="clip0_2099_885">
<rect width="110" height="110" fill="white"/>
</clipPath>
</defs>
</svg>
