<svg width="49" height="49" viewBox="0 0 49 49" fill="none" xmlns="http://www.w3.org/2000/svg">
<path d="M24.5 0C10.9676 0 0 10.9676 0 24.5C0 38.0324 10.9676 49 24.5 49C38.0324 49 49 38.0324 49 24.5C49 10.9676 38.0324 0 24.5 0ZM39.7934 39.7838C37.8027 41.7744 35.4963 43.3344 32.9219 44.4158C30.2613 45.5451 27.4285 46.1098 24.5 46.1098C21.5811 46.1098 18.7482 45.5355 16.0781 44.4158C13.5037 43.3248 11.1877 41.7648 9.20664 39.7838C7.21602 37.7932 5.65605 35.4867 4.57461 32.9123C3.44531 30.2518 2.87109 27.4189 2.87109 24.5C2.87109 21.5811 3.44531 18.7482 4.56504 16.0781C5.65605 13.5037 7.21602 11.1877 9.19707 9.20664C11.1973 7.21602 13.5037 5.65605 16.0781 4.56504C18.7482 3.44531 21.5811 2.87109 24.5 2.87109C27.4189 2.87109 30.2518 3.44531 32.9219 4.56504C35.4963 5.65605 37.8123 7.21602 39.7934 9.19707C41.784 11.1877 43.3439 13.4941 44.4254 16.0686C45.5547 18.7291 46.1193 21.5619 46.1193 24.4904C46.1193 27.4094 45.5451 30.2422 44.4254 32.9123C43.3344 35.4867 41.7744 37.8027 39.7934 39.7838Z" fill="#7E7C7C"/>
<path d="M17.6467 19.4658H12.8711V34.7496H17.6467V19.4658Z" fill="#7E7C7C"/>
<path d="M15.1611 12.2502C13.4002 12.2502 12.2422 13.3891 12.2422 14.9012C12.2422 16.3846 13.3619 17.5522 15.0941 17.5522H15.1324C16.9316 17.5522 18.0514 16.375 18.0418 14.9012C18.0035 13.3891 16.9221 12.2502 15.1611 12.2502Z" fill="#7E7C7C"/>
<path d="M30.6896 19.3224C27.9525 19.3224 26.2395 20.8153 25.9236 21.8681V19.4659H20.5547C20.6217 20.7388 20.5547 34.7497 20.5547 34.7497H25.9236V26.4905C25.9236 26.0216 25.9045 25.5622 26.0385 25.2368C26.4021 24.3181 27.1965 23.361 28.6225 23.361C30.4887 23.361 31.3309 24.7774 31.3309 26.8446V34.7497H36.7477V26.2513C36.7477 21.5235 34.0871 19.3224 30.6896 19.3224Z" fill="#7E7C7C"/>
</svg>
