<svg width="49" height="49" viewBox="0 0 49 49" fill="none" xmlns="http://www.w3.org/2000/svg">
<path d="M24.5 0C10.9676 0 0 10.9676 0 24.5C0 38.0324 10.9676 49 24.5 49C38.0324 49 49 38.0324 49 24.5C49 10.9676 38.0324 0 24.5 0ZM39.7934 39.7838C37.8027 41.7744 35.4963 43.3344 32.9219 44.4158C30.2613 45.5451 27.4285 46.1098 24.5 46.1098C21.5811 46.1098 18.7482 45.5355 16.0781 44.4158C13.5037 43.3248 11.1877 41.7648 9.20664 39.7838C7.21602 37.7932 5.65605 35.4867 4.57461 32.9123C3.44531 30.2518 2.87109 27.4189 2.87109 24.5C2.87109 21.5811 3.44531 18.7482 4.56504 16.0781C5.65605 13.5037 7.21602 11.1877 9.19707 9.20664C11.1973 7.21602 13.5037 5.65605 16.0781 4.56504C18.7482 3.44531 21.5811 2.87109 24.5 2.87109C27.4189 2.87109 30.2518 3.44531 32.9219 4.56504C35.4963 5.65605 37.8123 7.21602 39.7934 9.19707C41.784 11.1877 43.3439 13.4941 44.4254 16.0686C45.5547 18.7291 46.1193 21.5619 46.1193 24.4904C46.1193 27.4094 45.5451 30.2422 44.4254 32.9123C43.3344 35.4867 41.7744 37.8027 39.7934 39.7838Z" fill="#7E7C7C"/>
<path d="M27.7352 16.1451C28.7209 16.1451 29.7736 16.4514 29.7736 16.4514L30.4053 12.6998C30.4053 12.6998 29.0654 12.2404 25.8689 12.2404C23.907 12.2404 22.7682 12.9869 21.9355 14.0875C21.1508 15.1307 21.1221 16.8055 21.1221 17.8869V20.3465H18.5859V24.0119H21.1221V36.7404H25.8689V24.0119H29.6301L29.9076 20.3465H25.8689V17.485C25.8689 16.4992 26.7494 16.1451 27.7352 16.1451Z" fill="#7E7C7C"/>
</svg>
