<svg width="52" height="52" viewBox="0 0 52 52" fill="none" xmlns="http://www.w3.org/2000/svg">
<path d="M26 17.0625C24.2323 17.0625 22.5044 17.5867 21.0346 18.5687C19.5648 19.5508 18.4193 20.9467 17.7428 22.5798C17.0664 24.2129 16.8894 26.0099 17.2342 27.7436C17.5791 29.4773 18.4303 31.0698 19.6802 32.3198C20.9302 33.5697 22.5227 34.4209 24.2564 34.7658C25.9901 35.1106 27.7871 34.9336 29.4202 34.2572C31.0533 33.5807 32.4492 32.4352 33.4313 30.9654C34.4133 29.4956 34.9375 27.7677 34.9375 26C34.9348 23.6304 33.9923 21.3587 32.3168 19.6832C30.6413 18.0077 28.3696 17.0652 26 17.0625ZM26 33.3125C24.5537 33.3125 23.1399 32.8836 21.9374 32.0801C20.7349 31.2766 19.7976 30.1346 19.2441 28.7984C18.6907 27.4622 18.5459 25.9919 18.828 24.5734C19.1102 23.1549 19.8066 21.852 20.8293 20.8293C21.852 19.8066 23.1549 19.1102 24.5734 18.828C25.9919 18.5459 27.4622 18.6907 28.7984 19.2441C30.1346 19.7976 31.2766 20.7349 32.0801 21.9374C32.8836 23.1399 33.3125 24.5537 33.3125 26C33.3103 27.9387 32.5392 29.7974 31.1683 31.1683C29.7974 32.5392 27.9387 33.3103 26 33.3125ZM34.9375 6.5H17.0625C14.2621 6.50317 11.5774 7.61702 9.59719 9.59719C7.61702 11.5774 6.50317 14.2621 6.5 17.0625V34.9375C6.50317 37.7379 7.61702 40.4226 9.59719 42.4028C11.5774 44.383 14.2621 45.4968 17.0625 45.5H34.9375C37.7379 45.4968 40.4226 44.383 42.4028 42.4028C44.383 40.4226 45.4968 37.7379 45.5 34.9375V17.0625C45.4968 14.2621 44.383 11.5774 42.4028 9.59719C40.4226 7.61702 37.7379 6.50317 34.9375 6.5ZM43.875 34.9375C43.8723 37.3071 42.9298 39.5788 41.2543 41.2543C39.5788 42.9298 37.3071 43.8723 34.9375 43.875H17.0625C14.6929 43.8723 12.4212 42.9298 10.7457 41.2543C9.07016 39.5788 8.12768 37.3071 8.125 34.9375V17.0625C8.12768 14.6929 9.07016 12.4212 10.7457 10.7457C12.4212 9.07016 14.6929 8.12768 17.0625 8.125H34.9375C37.3071 8.12768 39.5788 9.07016 41.2543 10.7457C42.9298 12.4212 43.8723 14.6929 43.875 17.0625V34.9375ZM38.1875 15.4375C38.1875 15.7589 38.0922 16.0731 37.9136 16.3403C37.7351 16.6075 37.4813 16.8158 37.1844 16.9388C36.8874 17.0618 36.5607 17.094 36.2455 17.0313C35.9303 16.9686 35.6407 16.8138 35.4135 16.5865C35.1862 16.3593 35.0314 16.0697 34.9687 15.7545C34.906 15.4393 34.9382 15.1126 35.0612 14.8156C35.1842 14.5187 35.3925 14.2649 35.6597 14.0864C35.9269 13.9078 36.2411 13.8125 36.5625 13.8125C36.9933 13.813 37.4064 13.9844 37.711 14.289C38.0156 14.5936 38.187 15.0067 38.1875 15.4375Z" fill="black"/>
</svg>
