<svg width="262" height="60" viewBox="0 0 262 60" fill="none" xmlns="http://www.w3.org/2000/svg">
<path d="M15.1049 25.2366V23.653C12.7323 24.5579 10.5708 26.3929 8.62004 29.1578C6.66933 31.8725 5.64125 34.4364 5.53581 36.8495V59.6983H0V21.994H5.53581V33.984C6.37936 31.0682 7.98737 28.3283 10.3599 25.7645C12.7323 23.1503 15.4212 21.7929 18.4264 21.6924H18.7426C19.7971 21.6924 20.667 22.0443 21.3524 22.7481C22.0905 23.4017 22.4596 24.2312 22.4596 25.2366C22.4596 26.242 22.0905 27.0715 21.3524 27.7251C20.667 28.3786 19.7971 28.7054 18.7426 28.7054C17.6882 28.7054 16.8183 28.3786 16.1329 27.7251C15.4476 27.0715 15.1049 26.242 15.1049 25.2366Z" fill="#0F4D5C"/>
<path d="M53.9434 59.6983C50.3582 59.6983 47.9067 59.0447 46.5886 57.7376C45.3761 56.6317 44.7697 55.6765 44.7697 54.8721V53.2885C42.1864 57.7628 38.0477 59.9999 32.3537 59.9999C25.7107 59.9999 21.9411 57.1344 21.0448 51.4033C20.9394 50.8001 20.8867 50.1968 20.8867 49.5935C20.8867 48.94 20.9921 48.2362 21.203 47.4821C21.4139 46.728 22.0202 45.8985 23.0219 44.9936C25.0253 43.1838 29.4276 42.0778 36.2288 41.6756C37.9159 41.5248 39.4712 41.4494 40.8947 41.4494C42.3182 41.4494 43.6099 41.4997 44.7697 41.6002V29.0824C44.6643 29.0322 44.6643 28.8059 44.7697 28.4038C44.8752 27.9513 44.7697 27.3983 44.4534 26.7448C44.1897 26.041 43.8208 25.3623 43.3462 24.7087C42.8717 24.0552 42.0282 23.5022 40.8156 23.0498C39.6029 22.547 38.0214 22.2957 36.0706 22.2957C34.1199 22.2957 31.8265 22.6476 29.1904 23.3514C26.607 24.0049 24.7091 24.6585 23.4964 25.312L23.1801 24.7841C27.8723 22.723 32.6437 21.6924 37.4941 21.6924C42.9244 21.6924 46.5096 22.6224 48.2494 24.4825C49.6202 25.9404 50.3055 27.4737 50.3055 29.0824V54.3443C50.3055 55.8022 50.5955 56.9333 51.1755 57.7376C51.8081 58.4917 52.4408 58.8939 53.0734 58.9442L53.9434 59.095H56.3949V59.6983H53.9434ZM33.6191 59.3966C36.4133 59.3966 38.9176 58.4917 41.132 56.6819C43.399 54.8218 44.6115 53.0372 44.7697 51.3279V42.2035C43.3462 42.103 41.8964 42.0527 40.4202 42.0527C38.9967 42.0527 37.5732 42.1281 36.1497 42.2789C32.1429 42.7314 29.533 43.586 28.3205 44.8428C27.1079 46.0996 26.5015 47.834 26.5015 50.046C26.5015 50.4482 26.5279 50.9006 26.5806 51.4033C27.0551 56.7322 29.4012 59.3966 33.6191 59.3966Z" fill="#0F4D5C"/>
<path d="M64.0686 59.6983C61.907 59.6983 60.2462 59.2458 59.0864 58.3409C57.9792 57.436 57.3992 56.5311 57.3465 55.6262L57.2674 54.3443V21.994H62.8033V54.3443C62.8033 55.8022 63.0932 56.9333 63.6732 57.7376C64.3059 58.4917 64.9121 58.8939 65.4921 58.9442L66.4411 59.095H68.8926V59.6983H64.0686ZM57.742 13.5483C57.1092 12.945 56.793 12.1909 56.793 11.286C56.793 10.3811 57.1092 9.62704 57.742 9.02378C58.3747 8.37023 59.1654 8.04346 60.1144 8.04346C61.0635 8.04346 61.8542 8.37023 62.487 9.02378C63.1723 9.62704 63.515 10.3811 63.515 11.286C63.515 12.1909 63.1723 12.945 62.487 13.5483C61.8542 14.1516 61.0635 14.4532 60.1144 14.4532C59.1654 14.4532 58.3747 14.1516 57.742 13.5483Z" fill="#0F4D5C"/>
<path d="M101.757 59.6983C99.5953 59.6983 97.9345 59.2458 96.7746 58.3409C95.6675 57.436 95.0875 56.5311 95.0348 55.6262L94.9557 54.3443V30.666C94.9557 26.6945 93.8749 24.1557 91.7134 23.0498C90.6062 22.547 89.2354 22.2957 87.601 22.2957C84.2269 22.2957 81.1953 23.5776 78.5065 26.1415C75.8176 28.6551 74.4733 30.9174 74.4733 32.9283V59.6983H68.9375V21.994H74.4733V30.5906C75.3696 28.4289 77.0302 26.418 79.4555 24.5579C81.8807 22.6476 84.5431 21.6924 87.4428 21.6924C90.3425 21.6924 92.6887 21.9689 94.4813 22.5219C96.3265 23.0246 97.671 23.7536 98.5145 24.7087C99.8325 26.2672 100.492 28.2781 100.492 30.7414V54.3443C100.492 55.8022 100.782 56.9333 101.361 57.7376C101.994 58.4917 102.627 58.8939 103.259 58.9442L104.129 59.095H106.581V59.6983H101.757Z" fill="#0F4D5C"/>
<path d="M112.623 18.45V21.9942H118.87V22.5975H112.623V59.6985H107.087V22.5975H105.426V21.9942H107.087V18.45C107.087 12.9704 108.326 9.07423 110.803 6.7617C113.282 4.39891 117.289 3.19237 122.825 3.14209V3.74536C119.186 3.79564 116.577 4.97703 114.995 7.28956C113.414 9.55182 112.623 13.272 112.623 18.45Z" fill="#0F4D5C"/>
<path d="M137.581 59.9999C132.045 59.9999 127.537 58.4917 124.058 55.4754C120.579 52.4591 118.84 47.8089 118.84 41.5248C118.84 35.2408 120.631 30.3644 124.216 26.8956C127.854 23.4268 132.441 21.6924 137.977 21.6924C143.565 21.6924 148.099 23.2006 151.579 26.2169C155.058 29.2332 156.799 33.8834 156.799 40.1675C156.799 46.4515 154.981 51.3279 151.342 54.7967C147.757 58.2655 143.17 59.9999 137.581 59.9999ZM138.135 22.2957C134.128 22.2957 130.807 24.0049 128.17 27.4234C125.534 30.7917 124.216 35.5173 124.216 41.6002C124.216 47.6329 125.428 52.1071 127.854 55.0229C130.279 57.9387 133.495 59.3966 137.502 59.3966C141.509 59.3966 144.831 57.7125 147.468 54.3443C150.104 50.9257 151.421 46.2002 151.421 40.1675C151.421 34.0845 150.208 29.5852 147.782 26.6694C145.358 23.7536 142.142 22.2957 138.135 22.2957Z" fill="#0F4D5C"/>
<path d="M171.913 25.2366V23.653C169.541 24.5579 167.379 26.3929 165.428 29.1578C163.478 31.8725 162.45 34.4364 162.344 36.8495V59.6983H156.809V21.994H162.344V33.984C163.188 31.0682 164.796 28.3283 167.169 25.7645C169.541 23.1503 172.23 21.7929 175.235 21.6924H175.552C176.605 21.6924 177.476 22.0443 178.161 22.7481C178.899 23.4017 179.269 24.2312 179.269 25.2366C179.269 26.242 178.899 27.0715 178.161 27.7251C177.476 28.3786 176.605 28.7054 175.552 28.7054C174.497 28.7054 173.627 28.3786 172.942 27.7251C172.256 27.0715 171.913 26.242 171.913 25.2366Z" fill="#0F4D5C"/>
<path d="M183.463 41.2986C183.463 47.5324 184.597 52.1071 186.864 55.0229C189.184 57.9387 192.215 59.3966 195.958 59.3966C201.231 59.3966 205.923 58.6425 210.035 57.1344L210.273 57.6622C206.055 59.2207 201.283 59.9999 195.958 59.9999C190.687 59.9999 186.389 58.4917 183.068 55.4754C179.746 52.4591 178.086 47.8089 178.086 41.5248C178.086 35.2408 179.826 30.3644 183.305 26.8956C186.785 23.4268 191.214 21.6924 196.591 21.6924C200.915 21.6924 204.553 22.9241 207.505 25.3874C210.457 27.8508 211.933 31.4955 211.933 36.3216C211.933 36.573 211.933 36.8244 211.933 37.0757H183.701C183.543 38.4331 183.463 39.8407 183.463 41.2986ZM206.556 36.4725C206.504 31.6463 205.528 28.077 203.63 25.7645C201.732 23.4519 199.28 22.2957 196.275 22.2957C193.27 22.2957 190.581 23.5525 188.209 26.0661C185.889 28.5797 184.413 32.0485 183.78 36.4725H206.556Z" fill="#0F4D5C"/>
<path d="M235.902 24.6333C235.058 23.9798 233.687 23.4268 231.789 22.9743C229.944 22.5219 228.546 22.2957 227.597 22.2957C226.649 22.2957 226.095 22.2957 225.937 22.2957C223.09 22.3459 221.034 23.0498 219.768 24.4071C218.503 25.7142 217.87 27.1972 217.87 28.8562C217.87 30.5152 218.424 31.9228 219.532 33.0791C220.639 34.1851 222.009 35.0648 223.643 35.7184C225.331 36.3216 227.124 37.0255 229.021 37.8298C230.972 38.6342 232.764 39.4637 234.399 40.3183C236.086 41.1226 237.484 42.3292 238.59 43.9379C239.697 45.4963 240.251 47.457 240.251 49.8198C240.251 52.1826 239.381 54.1934 237.642 55.8524C235.902 57.5114 233.951 58.6174 231.789 59.1704C229.68 59.7234 227.387 59.9999 224.909 59.9999C219.532 59.9999 215.498 58.8688 212.809 56.6065L213.284 56.1541C214.339 57.1092 215.893 57.8885 217.95 58.4917C220.059 59.095 222.088 59.3966 224.039 59.3966C227.15 59.3966 229.707 58.5923 231.71 56.9836C233.767 55.3246 234.794 53.2885 234.794 50.8755C234.794 48.4121 234.03 46.4515 232.501 44.9936C230.972 43.4854 229.101 42.3292 226.886 41.5248C224.725 40.6702 222.536 39.8407 220.323 39.0363C218.108 38.1817 216.236 37.0255 214.707 35.5676C213.178 34.0594 212.414 32.325 212.414 30.3644C212.414 28.4038 212.889 26.8202 213.838 25.6136C214.786 24.3568 216.051 23.4771 217.633 22.9743C220.323 22.1197 223.011 21.6924 225.7 21.6924C230.234 21.6924 233.767 22.4968 236.297 24.1055L235.902 24.6333Z" fill="#0F4D5C"/>
<path d="M241.023 22.5972V21.9939H242.684V14.4531H248.221V21.9939H260.32V22.5972H248.221V50.0459C248.221 53.3136 248.589 55.6764 249.327 57.1343C250.118 58.5922 251.726 59.3211 254.151 59.3211C256.629 59.3211 259.134 58.8435 261.665 57.8884L261.901 58.4916C259.266 59.4468 256.234 59.9244 252.807 59.9244C249.433 59.9244 246.902 59.2709 245.215 57.9638C243.528 56.6064 242.684 53.942 242.684 49.9705V22.5972H241.023Z" fill="#0F4D5C"/>
<path d="M69.3328 9.81881C69.3328 15.2416 64.7225 19.6376 59.0355 19.6376C53.3485 19.6376 48.7383 15.2416 48.7383 9.81881C48.7383 4.39603 53.3485 0 59.0355 0C64.7225 0 69.3328 4.39603 69.3328 9.81881Z" fill="#FC3A3A"/>
</svg>
