<svg width="110" height="110" viewBox="0 0 110 110" fill="none" xmlns="http://www.w3.org/2000/svg">
<g clip-path="url(#clip0_2099_899)">
<path d="M110 55C110 24.6243 85.3757 0 55 0C24.6243 0 0 24.6243 0 55C0 85.3757 24.6243 110 55 110C85.3757 110 110 85.3757 110 55Z" fill="url(#paint0_radial_2099_899)"/>
<path d="M55 99C79.3005 99 99 79.3005 99 55C99 30.6995 79.3005 11 55 11C30.6995 11 11 30.6995 11 55C11 79.3005 30.6995 99 55 99Z" fill="white"/>
<path d="M41.0997 29.626C36.744 28.1859 37.4545 23.124 41.406 22.8127C45.3326 22.7222 49.9441 22.6781 53.8697 22.8537C57.1956 23.0025 58.6409 27.8254 54.1595 29.626L54.1578 44.141C54.1592 50.4042 56.3499 48.5065 59.8071 52.0993C68.7705 61.4141 64.8339 76.3665 52.4446 80.2766C41.5516 83.6822 30.1041 75.5429 30.0667 64.0584C30.0477 58.1971 33.0785 52.8204 38.0742 49.7506C40.8177 48.0646 41.1023 48.1567 41.1011 44.5426L41.0997 29.626ZM41.6639 24.662C39.444 24.8452 39.6036 27.4503 41.3472 27.7109C41.819 27.7814 42.4547 27.7442 42.9375 27.7421L53.5589 27.7375C55.0852 27.6049 55.6464 25.9828 54.4925 24.9783C54.0197 24.5667 52.6626 24.662 52.0301 24.6614L41.6639 24.662ZM42.9307 29.626L42.9332 44.7504C42.9428 47.2195 42.7308 49.3655 40.1787 50.7065C35.7056 53.0569 33.1475 56.5986 32.11 61.5356L59.3138 61.5347C59.8894 61.5347 62.676 61.8125 62.5749 61.2595C61.788 56.4897 58.7999 52.9475 54.7351 50.6064C52.7206 49.446 52.3204 47.3048 52.3058 45.2303C51.7472 45.2323 51.0715 45.2263 50.5675 45.2348C49.5948 45.2508 49.1891 44.261 49.7875 43.6075C50.1369 43.2259 51.8402 43.3391 52.3058 43.3427V41.4312C51.6838 41.4353 51.0614 41.4444 50.451 41.4176C49.5485 41.3779 49.1702 40.4363 49.7218 39.8261C50.1278 39.377 51.7152 39.557 52.3058 39.5511V37.6932C51.5275 37.6977 48.3466 37.8464 49.7421 36.1106C50.0764 35.6946 51.8111 35.8328 52.3058 35.8328V33.8071C51.6671 33.8131 51.0271 33.8261 50.4028 33.7987C49.491 33.7588 49.1952 32.7173 49.7316 32.1663C50.1238 31.7634 51.7609 31.926 52.3058 31.9226V29.626H42.9307ZM31.9513 63.3694C31.6723 67.0728 33.205 70.9094 35.5487 73.7184C41.4391 80.7782 51.7292 80.8603 58.312 74.6952C61.2509 71.7619 62.8008 68.1767 62.8028 64.0156L62.7996 63.3694H31.9513Z" fill="#0F4D5C"/>
<path d="M64.2926 46.508C59.7777 46.9474 55.7589 43.6504 55.3078 39.1372C54.8567 34.6239 58.1434 30.5968 62.6558 30.134C67.185 29.6692 71.2307 32.9705 71.6835 37.5006C72.1364 42.0304 68.8243 46.0671 64.2926 46.508ZM63.3155 31.9606C59.8026 32.0588 57.0325 34.9828 57.1245 38.4957C57.2165 42.0085 60.1359 44.7835 63.6492 44.6977C67.1714 44.6116 69.9549 41.6836 69.8627 38.162C69.7705 34.6404 66.8374 31.8623 63.3155 31.9606Z" fill="#0F4D5C"/>
<path d="M69.591 51.648C68.7247 51.653 67.5154 51.7269 66.684 51.6047C65.738 51.4657 65.543 50.3217 66.5347 49.8248C68.8123 49.7127 71.269 49.8782 73.5562 49.8525C74.5279 49.8219 74.6863 51.3435 73.8048 51.5603C73.111 51.7308 72.1649 51.6379 71.4334 51.648V67.4072C71.8795 67.9116 72.3714 68.6795 72.7821 69.2471L78.166 76.7456C78.845 77.7018 79.75 78.8246 80.1716 79.9048C81.9265 84.3957 77.6394 88.8221 72.9327 86.7343C70.9415 85.6314 67.8916 80.6022 66.4176 78.6112L64.0017 75.3104C61.9121 72.4539 62.3913 72.9025 64.9066 71.1208L69.591 67.7831V59.9414C69.1554 59.9409 68.4493 59.9863 68.0998 59.7011C67.6923 59.363 67.7171 58.6199 68.0944 58.2703C68.4261 57.9629 69.1566 58.0475 69.591 58.0563V55.9571C68.6513 55.9526 68.029 56.0769 67.7606 55.0014C68.0244 53.8573 68.613 54.0212 69.591 54.037V51.648ZM70.6032 69.3322C68.7701 70.6344 66.7354 72.1526 64.894 73.3781C65.8707 74.8873 67.1457 76.4581 68.2117 77.9372L71.068 81.8613C71.6063 82.6056 72.8453 84.4962 73.5291 84.9501C76.7015 86.7328 80.0946 83.0706 78.1139 80.039C77.3996 78.9448 76.6524 77.861 75.8956 76.7859L72.2804 71.6988C72.0194 71.3317 70.8512 69.5505 70.6032 69.3322Z" fill="#0F4D5C"/>
<path d="M43.7948 54.1647C43.2549 54.3133 42.697 53.9941 42.5512 53.4534C42.4055 52.9126 42.7277 52.3565 43.2693 52.2137C43.5776 52.1326 43.9064 52.2016 44.1559 52.4002C44.4054 52.5987 44.5465 52.9034 44.5365 53.2221C44.5228 53.6649 44.2221 54.0471 43.7948 54.1647Z" fill="#0F4D5C"/>
<path d="M37.2142 59.4263C34.0798 59.4153 38.8042 54.613 40.1175 54.0334C40.8277 53.9906 41.4917 54.6754 41.0954 55.3091C40.402 56.4184 38.8081 57.1164 38.0505 58.7311C37.8379 59.1304 37.6324 59.3212 37.2142 59.4263Z" fill="#0F4D5C"/>
<path d="M46.9556 76.494C41.3796 76.6876 35.8271 71.7838 35.0373 66.2543C34.9251 65.4681 34.8512 64.9819 35.7162 64.6719C36.8639 64.6678 36.7203 65.5951 36.8854 66.4042C37.7646 70.7148 41.6147 74.041 45.9439 74.5565C46.2373 74.5917 46.6872 74.5675 46.9402 74.6621C47.8884 75.0141 47.909 76.087 46.9556 76.494Z" fill="#0F4D5C"/>
</g>
<defs>
<radialGradient id="paint0_radial_2099_899" cx="0" cy="0" r="1" gradientUnits="userSpaceOnUse" gradientTransform="translate(55 10.45) rotate(117.094) scale(70.2602)">
<stop stop-color="#01EDE3"/>
<stop offset="1" stop-color="#E71D36"/>
</radialGradient>
<clipPath id="clip0_2099_899">
<rect width="110" height="110" fill="white"/>
</clipPath>
</defs>
</svg>
