<svg width="139" height="32" viewBox="0 0 139 32" fill="none" xmlns="http://www.w3.org/2000/svg">
<path d="M16.5 2C24.4077 2 31 8.10727 31 15.8594C30.9999 23.6114 24.4076 29.7188 16.5 29.7188C8.59239 29.7188 2.00008 23.6114 2 15.8594C2 8.10727 8.59234 2 16.5 2Z" fill="white" stroke="url(#paint0_linear_1780_3675)" stroke-width="4"/>
<path d="M19.5287 18.2969C20.0404 18.6889 20.3003 18.8523 20.9045 19.1001L20.8776 19.1091C20.8213 19.0929 20.7681 19.0647 20.7216 19.0928C20.6011 19.1653 20.543 19.3847 20.5065 19.5069C20.567 19.5325 20.6235 19.549 20.6861 19.5686L20.6819 19.5877C20.3942 19.5335 19.9322 19.3191 19.6675 19.1745C19.5105 19.0887 19.3373 18.971 19.1758 18.8972L19.2031 18.8784C19.2709 18.8875 19.6483 19.1299 19.757 19.186L19.7736 19.1944C20.055 19.0052 19.9636 18.9165 20.3062 18.8513C20.1223 18.7611 19.6267 18.4751 19.5287 18.2969Z" fill="#B35C81"/>
<path d="M18.5544 19.2815C18.4066 19.1363 18.3713 19.1262 18.2241 18.9425L18.2266 18.9297C18.3592 19.0286 18.457 19.1215 18.568 19.2455L18.5544 19.2815Z" fill="#C53B46"/>
<path d="M19.4295 19.1123C20.1373 19.6206 20.6726 20.068 21.5803 20.261C21.6339 20.3 21.644 20.2991 21.7105 20.3012L21.7381 20.3332C21.7146 20.5127 21.3938 20.9591 21.2491 21.0616C21.1615 21.0437 21.0947 21.0296 21.0049 21.0212C20.4156 20.8285 19.3825 20.0958 18.9385 19.6724C19.116 19.7227 19.172 19.8699 19.2739 19.918C19.3577 19.9223 19.5743 19.7857 19.5951 19.7077C19.6339 19.5627 19.6968 19.5724 19.7823 19.4699C19.7834 19.3487 19.4919 19.2697 19.4295 19.1123Z" fill="#B35C81"/>
<path d="M21.5521 20.2678C22.3265 20.3693 22.8928 20.369 23.4553 19.7588C23.7332 20.7633 22.8634 21.316 21.9594 21.2485C21.6562 21.2259 21.2693 21.146 20.9937 21.0162C21.0835 21.0245 21.144 21.0323 21.2315 21.0502C21.3762 20.9477 21.6864 20.5195 21.7099 20.3399L21.6823 20.3079C21.6158 20.3058 21.6057 20.3068 21.5521 20.2678Z" fill="#0E4D5C"/>
<path d="M22.6 18.9639C22.3617 19.7465 21.2074 19.7406 20.5802 19.5527C20.5524 19.5444 20.562 19.5483 20.5407 19.5375L20.5448 19.5184C20.4822 19.4987 20.4258 19.4822 20.3652 19.4566C20.4018 19.3344 20.4599 19.115 20.5803 19.0425C20.6269 19.0145 20.6801 19.0427 20.7364 19.0589L20.7632 19.0498C21.5359 19.2757 21.8834 19.3277 22.6 18.9639Z" fill="#0E4D5C"/>
<path d="M24.444 21.6466L24.462 21.627C24.5051 21.6993 24.5092 21.9787 24.5059 22.0686C24.4476 23.646 22.8077 24.5786 21.3636 24.1549C21.2268 24.1148 21.0224 24.0576 20.9087 23.9751C21.0037 23.9944 21.2143 24.0719 21.3205 24.1045C21.6325 24.2036 21.9581 24.2268 22.2835 24.2245C22.4165 24.2236 22.444 24.1397 22.5415 24.0635C23.0925 23.6295 23.6076 23.1516 24.0816 22.6345C24.2112 22.4924 24.3147 22.3343 24.4618 22.1747C24.4858 22.0514 24.4715 21.7697 24.444 21.6466Z" fill="#0E4D5C"/>
<path d="M18.4295 21.363C18.4338 21.3024 18.3725 21.2501 18.3433 21.1855C18.3501 21.1783 18.3797 21.1579 18.3883 21.1521C18.6884 20.9514 18.9795 20.7031 19.2887 20.523C19.3222 20.5034 19.4316 20.5037 19.4657 20.5088L19.4963 20.5623V20.5398C19.6863 20.724 19.8955 21.0289 20.0788 21.2349C20.7154 21.95 21.507 22.5759 22.5077 22.5784C23.075 22.5782 23.6193 22.3537 24.0217 21.9537C24.0889 21.8863 24.1395 21.8163 24.1954 21.7396L24.2134 21.7199C24.2565 21.7923 24.2606 22.0716 24.2573 22.1616C24.199 23.739 22.5591 24.6715 21.115 24.2479C20.9782 24.2078 20.7738 24.1506 20.6601 24.0681C20.6444 24.0625 20.6219 24.053 20.6077 24.046C19.7065 23.6074 19.1106 22.6551 18.6669 21.7899C18.5995 21.6585 18.4785 21.4953 18.4295 21.363Z" fill="#0E4D5C"/>
<path d="M12.2716 8.01144C13.5291 7.98931 14.832 8.0063 16.094 8.00518L17.5702 8.00386C18.076 8.00331 18.6009 7.98853 19.1027 8.05473C20.1109 8.18774 21.0642 8.57804 21.805 9.28894C22.6063 10.0446 23.0627 11.0957 23.068 12.1971C23.0833 13.2808 22.7119 14.2351 21.9547 15.0141C20.7888 16.2135 19.2328 16.5064 17.6292 16.5135C17.5852 16.5137 17.5412 16.5134 17.4972 16.5125C17.691 16.6166 17.7874 16.6377 17.989 16.775C18.6161 17.2018 18.9804 17.8013 19.5539 18.302C20.0656 18.694 20.3255 18.8574 20.9297 19.1052L20.9028 19.1142C20.8465 19.098 20.7933 19.0698 20.7468 19.0979C20.6263 19.1704 20.5682 19.3898 20.5317 19.512C20.5922 19.5376 20.6487 19.5541 20.7113 19.5737L20.7071 19.5928C20.4194 19.5386 19.9574 19.3242 19.6927 19.1796C19.5357 19.0938 19.3625 18.9761 19.201 18.9023C19.25 18.9524 19.417 19.0903 19.4349 19.1178C19.4973 19.2752 19.7888 19.3542 19.7878 19.4754C19.7023 19.5779 19.6394 19.5682 19.6006 19.7132C19.5797 19.7912 19.3631 19.9278 19.2793 19.9234C19.1775 19.8754 19.1214 19.7282 18.9439 19.6778C18.8553 19.616 18.6177 19.3928 18.5411 19.3184L18.5275 19.3544C18.6764 19.4977 19.4498 20.4212 19.5285 20.5767L19.5062 20.594L19.4756 20.5404C19.4415 20.5353 19.3322 20.535 19.2986 20.5546C18.9894 20.7348 18.6983 20.9831 18.3982 21.1838C18.3896 21.1896 18.377 21.2035 18.3702 21.2107C18.3994 21.2753 18.4437 21.334 18.4395 21.3946C17.3881 19.6463 16.5137 18.4558 14.6733 17.4523C14.6666 16.2157 14.6662 14.9792 14.672 13.7427L17.2541 13.7474C17.6708 13.748 18.0913 13.7539 18.5026 13.7388C19.7011 13.6949 20.4794 12.2588 19.5997 11.3288C19.0517 10.7495 18.392 10.8461 17.6676 10.839C17.1901 10.8343 16.7039 10.8525 16.2322 10.8366C15.8135 10.863 15.3536 10.8206 14.9331 10.8398C12.794 10.9373 11.0178 10.1162 10.1704 8.01592C10.8327 7.99302 11.6045 8.00855 12.2716 8.01144Z" fill="#E71D36"/>
<path d="M10 8.01231C10.6623 7.98941 11.4341 8.00494 12.1012 8.00782C13.0521 8.03148 14.0623 8.01384 15.0194 8.01775L15.7419 8.0205C15.8151 8.0206 16.0445 8.01564 16.1083 8.02454C16.0039 8.04691 15.7532 8.02421 15.6613 8.0329C15.3277 8.06448 13.7097 7.99726 13.4936 8.06692C13.4856 8.20156 13.532 8.35972 13.5289 8.47911C13.5262 8.58436 13.4302 8.80729 13.4139 8.91984C13.3935 9.05982 13.4282 9.22498 13.4071 9.36244C13.3582 9.68141 13.2797 9.99739 13.238 10.3178C13.2224 10.4377 13.2288 10.4342 13.3251 10.4956C13.3314 10.6009 13.2193 10.6346 13.318 10.7009C13.608 10.8956 16.0045 10.7628 16.0618 10.833C15.6431 10.8593 15.1832 10.817 14.7627 10.8362C12.6236 10.9337 10.8474 10.1126 10 8.01231Z" fill="#FFD803"/>
<path d="M10.0169 9.97119C10.1314 10.067 10.3859 10.3984 10.5346 10.5364C11.2997 11.2465 11.937 11.5628 12.9231 11.8423C12.8985 12.7367 12.9107 13.6803 12.9108 14.5766L12.9108 20.1189C12.9098 20.9374 12.9261 21.7916 12.9094 22.6052C12.245 22.4191 11.5738 21.9647 11.1074 21.4623C10.6077 20.928 10.2621 20.2683 10.1072 19.5534C9.98156 18.9564 10.0144 18.2016 10.0149 17.579L10.0124 15.3943L10.0039 12.0029C10.0025 11.3369 9.9906 10.6337 10.0169 9.97119Z" fill="#E71D36"/>
<path d="M43.5084 8.37C43.9884 8.37 44.3184 8.4 44.6184 8.46V9.24H44.5584C41.6184 8.79 38.7984 11.04 38.7984 14.43V24H37.8984V8.58H38.7984V11.88H38.8584C39.5184 9.87 41.3784 8.37 43.5084 8.37ZM54.9886 12.57C54.9886 10.23 53.2186 9.15 50.8486 9.15C47.7586 9.15 46.1086 10.62 45.9586 12.93H45.0586C45.2086 10.8 46.5286 8.37 50.8486 8.37C53.6386 8.37 55.8886 9.54 55.8886 13.11V20.91C55.8886 22.11 55.7386 23.76 58.1686 23.25V24.03C57.7786 24.12 57.4186 24.15 57.1786 24.15C55.6186 24.15 54.9886 23.43 54.9886 21.48H54.9286C53.6986 23.52 51.7186 24.33 49.2886 24.33C46.3486 24.33 44.3386 22.74 44.3386 20.25C44.3386 17.37 46.1386 16.11 50.0986 15.51C52.4086 15.15 54.9886 15.21 54.9886 12.57ZM49.5286 23.55C53.2786 23.55 54.9886 21.03 54.9886 19.29V14.73C54.5386 15.72 52.6486 16.02 50.3986 16.29C47.4586 16.65 45.2386 17.52 45.2386 19.98C45.2386 22.35 46.7686 23.55 49.5286 23.55ZM60.0956 4.89C59.7656 4.89 59.3456 4.62 59.3456 4.17C59.3456 3.69 59.7656 3.45 60.0956 3.45C60.4556 3.45 60.8456 3.69 60.8456 4.17C60.8456 4.62 60.4556 4.89 60.0956 4.89ZM59.6456 8.58H60.5456V24H59.6456V8.58ZM70.2117 8.37C72.6117 8.37 74.8317 9.93 74.8317 12.96V24H73.9317V13.56C73.9317 11.28 73.1817 9.15 69.7917 9.15C66.3717 9.15 64.3617 11.73 64.3617 13.38V24H63.4617V8.58H64.3617V11.37H64.4217C65.3817 9.9 66.9717 8.37 70.2117 8.37ZM82.5579 3.3C80.4279 3 79.2279 3.18 79.2279 6.54V8.58H82.5579V9.36H79.2279V24H78.3279V9.36H76.1379V8.58H78.3279V6.3C78.3279 3.3 79.4979 2.37 81.3879 2.37C81.5379 2.37 82.0779 2.4 82.5579 2.52V3.3ZM89.5368 24.33C85.1568 24.33 82.4868 21.12 82.4868 16.35C82.4868 11.58 85.1568 8.37 89.5368 8.37C93.9168 8.37 96.5868 11.58 96.5868 16.35C96.5868 21.12 93.9168 24.33 89.5368 24.33ZM89.5368 23.55C93.4668 23.55 95.6868 20.52 95.6868 16.35C95.6868 12.18 93.4668 9.15 89.5368 9.15C85.6068 9.15 83.3868 12.18 83.3868 16.35C83.3868 20.52 85.6068 23.55 89.5368 23.55ZM103.981 8.37C104.461 8.37 104.791 8.4 105.091 8.46V9.24H105.031C102.091 8.79 99.2707 11.04 99.2707 14.43V24H98.3707V8.58H99.2707V11.88H99.3307C99.9907 9.87 101.851 8.37 103.981 8.37ZM111.861 23.55C115.431 23.55 116.871 21.03 117.231 19.38H118.131C117.471 22.2 115.461 24.33 111.861 24.33C107.571 24.33 104.871 21.15 104.871 16.35C104.871 11.34 107.691 8.37 111.831 8.37C116.301 8.37 118.341 11.7 118.341 16.2H105.771V16.38C105.771 20.31 107.811 23.55 111.861 23.55ZM111.831 9.15C108.021 9.15 105.861 12.15 105.771 15.42H117.441C117.441 12.33 115.701 9.15 111.831 9.15ZM125.662 15.48C128.962 16.32 131.092 17.04 131.092 19.98C131.092 22.56 128.932 24.33 125.632 24.33C121.252 24.33 119.212 22.11 119.062 19.2H119.962C120.112 21.72 122.032 23.55 125.632 23.55C128.122 23.55 130.192 22.08 130.192 20.13C130.192 17.22 127.702 16.92 124.912 16.17C121.792 15.33 119.602 14.79 119.602 12.21C119.602 9.9 121.612 8.37 124.912 8.37C128.692 8.37 130.222 10.56 130.552 12.69H129.652C129.322 10.95 127.972 9.15 124.912 9.15C122.752 9.15 120.502 10.05 120.502 12.21C120.502 14.28 122.842 14.76 125.662 15.48ZM137.832 9.36H134.442V20.01C134.442 22.05 134.472 23.85 137.832 23.13V23.91C137.292 24.03 136.842 24.09 136.212 24.09C134.772 24.09 133.542 23.37 133.542 20.25V9.36H131.292V8.58H133.542V3.6H134.442V8.58H137.832V9.36Z" fill="black"/>
<defs>
<linearGradient id="paint0_linear_1780_3675" x1="4" y1="16.6499" x2="23.4998" y2="16.4742" gradientUnits="userSpaceOnUse">
<stop stop-color="#01EDE3"/>
<stop offset="1" stop-color="#FBE765"/>
</linearGradient>
</defs>
</svg>
