<svg width="261" height="68" viewBox="0 0 261 68" fill="none" xmlns="http://www.w3.org/2000/svg">
<path d="M89.5312 26.848C90.4432 26.848 91.1152 26.896 91.7872 26.992V30.832H91.6912C86.3632 29.968 82.6672 33.712 82.6672 38.944V52H78.8272V27.52H82.6672V32.368H82.7632C84.0592 29.152 86.0272 26.848 89.5312 26.848ZM108.359 33.76C108.359 31.84 107.303 30.208 103.367 30.208C98.7108 30.208 97.1748 31.552 96.9348 35.104H93.0948C93.3348 30.4 96.2628 26.848 103.367 26.848C108.023 26.848 112.199 28.672 112.199 34.576V46.48C112.199 48.4 112.535 49.456 114.983 49.168V51.856C113.975 52.192 113.447 52.24 112.727 52.24C110.423 52.24 109.031 51.616 108.359 48.928H108.263C106.727 51.232 103.991 52.672 99.9588 52.672C95.0148 52.672 91.8948 49.84 91.8948 45.712C91.8948 40.144 96.0228 38.704 102.359 37.504C106.487 36.736 108.359 36.208 108.359 33.76ZM100.343 49.312C104.903 49.312 108.359 47.248 108.359 42.544V38.464C107.639 39.184 105.287 39.856 102.695 40.384C97.9428 41.392 95.7348 42.592 95.7348 45.52C95.7348 47.92 97.1748 49.312 100.343 49.312ZM119.292 22.768C118.236 22.768 116.892 21.952 116.892 20.464C116.892 18.976 118.236 18.16 119.292 18.16C120.396 18.16 121.692 18.976 121.692 20.464C121.692 21.952 120.396 22.768 119.292 22.768ZM117.372 27.52H121.212V52H117.372V27.52ZM138.01 26.848C142.474 26.848 146.218 29.296 146.218 34.912V52H142.378V35.872C142.378 32.704 140.89 30.208 137.05 30.208C132.73 30.208 129.85 32.944 129.85 36.736V52H126.01V27.52H129.85V30.448H129.946C131.242 28.72 133.834 26.848 138.01 26.848ZM160.495 21.04C157.231 20.8 155.839 21.28 155.839 24.064V27.52H160.495V30.88H155.839V52H151.999V30.88H148.591V27.52H151.999V23.68C151.999 18.688 154.495 17.392 157.759 17.392C158.623 17.392 159.631 17.488 160.495 17.68V21.04ZM173.182 52.672C165.694 52.672 161.182 47.392 161.182 39.76C161.182 32.128 165.694 26.848 173.182 26.848C180.622 26.848 185.134 32.128 185.134 39.76C185.134 47.392 180.622 52.672 173.182 52.672ZM173.182 49.312C178.654 49.312 181.294 44.992 181.294 39.76C181.294 34.528 178.654 30.208 173.182 30.208C167.662 30.208 165.022 34.528 165.022 39.76C165.022 44.992 167.662 49.312 173.182 49.312ZM198.756 26.848C199.668 26.848 200.34 26.896 201.012 26.992V30.832H200.916C195.588 29.968 191.892 33.712 191.892 38.944V52H188.052V27.52H191.892V32.368H191.988C193.284 29.152 195.252 26.848 198.756 26.848ZM213.023 49.312C217.919 49.312 219.743 46.144 220.175 44.464H224.015C222.767 49.024 219.263 52.672 213.167 52.672C205.727 52.672 201.215 47.44 201.215 39.76C201.215 31.6 205.823 26.848 212.975 26.848C220.655 26.848 224.399 32.08 224.399 40.768H205.055C205.055 45.184 207.695 49.312 213.023 49.312ZM212.975 30.208C208.367 30.208 205.055 33.472 205.055 37.408H220.559C220.559 33.472 217.583 30.208 212.975 30.208ZM237.177 37.456C241.545 38.512 246.489 39.232 246.489 45.28C246.489 49.744 242.409 52.672 236.841 52.672C229.353 52.672 225.897 49.12 225.657 43.84H229.497C229.737 46.576 230.697 49.312 236.841 49.312C241.017 49.312 242.649 47.152 242.649 45.52C242.649 41.968 239.433 41.776 235.929 40.912C232.185 40 226.617 39.568 226.617 33.808C226.617 29.968 230.025 26.848 235.785 26.848C241.881 26.848 245.145 30.304 245.529 34.528H241.689C241.305 32.656 240.393 30.208 235.785 30.208C232.329 30.208 230.457 31.6 230.457 33.52C230.457 36.4 233.769 36.64 237.177 37.456ZM259.437 30.88H254.637V45.616C254.637 48.4 256.173 48.88 259.437 48.64V52C258.573 52.192 257.565 52.288 256.557 52.288C253.293 52.288 250.797 50.992 250.797 46V30.88H247.197V27.52H250.797V19.36H254.637V27.52H259.437V30.88Z" fill="black"/>
<path d="M34 2C51.6731 2 66 16.3269 66 34C66 51.6731 51.6731 66 34 66C16.3269 66 2 51.6731 2 34C2 16.3269 16.3269 2 34 2Z" fill="url(#paint0_linear_2144_622)" stroke="white" stroke-width="4"/>
<path d="M41.0427 39.4146C42.0867 40.2145 42.6171 40.5478 43.8498 41.0535L43.795 41.0719C43.6801 41.0388 43.5716 40.9813 43.4766 41.0385C43.2309 41.1864 43.1122 41.6341 43.0377 41.8834C43.1612 41.9357 43.2764 41.9694 43.4041 42.0095L43.3958 42.0484C42.8086 41.9377 41.8659 41.5002 41.3258 41.2052C41.0054 41.0302 40.652 40.7901 40.3225 40.6395L40.3782 40.601C40.5167 40.6197 41.2866 41.1144 41.5084 41.2287L41.5423 41.246C42.1164 40.8597 41.9301 40.6788 42.629 40.5458C42.2539 40.3617 41.2425 39.7781 41.0427 39.4146Z" fill="#B35C81"/>
<path d="M39.0542 41.422C38.7527 41.1258 38.6806 41.1052 38.3803 40.7302L38.3854 40.7041C38.656 40.906 38.8556 41.0954 39.082 41.3485L39.0542 41.422Z" fill="#C53B46"/>
<path d="M40.839 41.0679C42.2833 42.1049 43.3756 43.0179 45.2277 43.4117C45.337 43.4913 45.3577 43.4894 45.4933 43.4937L45.5497 43.5589C45.5016 43.9253 44.8471 44.836 44.5519 45.0452C44.3732 45.0088 44.2369 44.9798 44.0535 44.9628C42.8511 44.5696 40.7432 43.0745 39.8372 42.2106C40.1994 42.3134 40.3138 42.6137 40.5215 42.7117C40.6925 42.7206 41.1345 42.4419 41.1771 42.2827C41.2562 41.9868 41.3846 42.0067 41.559 41.7976C41.5611 41.5503 40.9663 41.3891 40.839 41.0679Z" fill="#B35C81"/>
<path d="M45.1704 43.4243C46.7504 43.6314 47.906 43.6309 49.0536 42.3857C49.6207 44.4353 47.8461 45.5631 46.0015 45.4254C45.3827 45.3792 44.5934 45.2161 44.0309 44.9513C44.2143 44.9684 44.3376 44.9843 44.5163 45.0207C44.8115 44.8115 45.4443 43.9379 45.4924 43.5715L45.436 43.5062C45.3004 43.5019 45.2797 43.5039 45.1704 43.4243Z" fill="#0E4D5C"/>
<path d="M47.3092 40.7695C46.8229 42.3664 44.4675 42.3545 43.1879 41.9711C43.1311 41.9541 43.1507 41.9619 43.1073 41.9399L43.1157 41.901C42.9879 41.8609 42.8728 41.8272 42.7492 41.7749C42.8237 41.5256 42.9424 41.0779 43.1881 40.93C43.2831 40.8728 43.3916 40.9303 43.5065 40.9633L43.5613 40.945C45.1378 41.4057 45.847 41.5118 47.3092 40.7695Z" fill="#0E4D5C"/>
<path d="M51.072 46.2505L51.1087 46.2104C51.1967 46.3581 51.2052 46.9281 51.1984 47.1117C51.0795 50.3302 47.7334 52.2329 44.7866 51.3685C44.5077 51.2867 44.0906 51.17 43.8585 51.0017C44.0524 51.041 44.4821 51.1992 44.6988 51.2656C45.3353 51.4679 45.9997 51.5151 46.6638 51.5105C46.9351 51.5086 46.9912 51.3375 47.1901 51.1821C48.3145 50.2965 49.3654 49.3213 50.3326 48.2663C50.597 47.9764 50.8083 47.6538 51.1085 47.3281C51.1573 47.0764 51.1283 46.5017 51.072 46.2505Z" fill="#0E4D5C"/>
<path d="M38.7995 45.6728C38.8082 45.5491 38.6831 45.4425 38.6234 45.3106C38.6374 45.2959 38.6977 45.2543 38.7153 45.2425C39.3277 44.833 39.9215 44.3263 40.5525 43.9588C40.621 43.9188 40.844 43.9194 40.9137 43.9298L40.9761 44.039V43.9932C41.3638 44.3689 41.7906 44.991 42.1648 45.4114C43.4637 46.8706 45.0788 48.1476 47.1206 48.1526C48.2783 48.1523 49.3888 47.6941 50.2099 46.8781C50.3471 46.7405 50.4502 46.5976 50.5643 46.4411L50.601 46.401C50.6889 46.5486 50.6975 47.1187 50.6907 47.3022C50.5718 50.5207 47.2257 52.4235 44.2789 51.5591C43.9999 51.4773 43.5829 51.3606 43.3508 51.1923C43.3187 51.1808 43.2728 51.1614 43.2438 51.1472C41.405 50.2523 40.1892 48.3092 39.2837 46.5439C39.1462 46.2757 38.8995 45.9426 38.7995 45.6728Z" fill="#0E4D5C"/>
<path d="M26.234 18.4159C28.7999 18.3708 31.4583 18.4054 34.0334 18.4032L37.0454 18.4004C38.0775 18.3993 39.1486 18.3692 40.1724 18.5042C42.2297 18.7756 44.1747 19.572 45.6863 21.0226C47.3212 22.5645 48.2526 24.7092 48.2633 26.9565C48.2946 29.1675 47.5369 31.1148 45.9918 32.7043C43.6129 35.1515 40.4379 35.749 37.1658 35.7636C37.076 35.764 36.9863 35.7634 36.8965 35.7616C37.292 35.974 37.4887 36.0171 37.9 36.2971C39.1796 37.1679 39.923 38.3913 41.0931 39.4128C42.1371 40.2128 42.6676 40.5461 43.9003 41.0518L43.8455 41.0701C43.7306 41.0371 43.6221 40.9796 43.5271 41.0368C43.2813 41.1847 43.1627 41.6324 43.0881 41.8817C43.2117 41.934 43.3269 41.9677 43.4546 42.0078L43.4462 42.0467C42.8591 41.936 41.9164 41.4985 41.3763 41.2035C41.0559 41.0285 40.7025 40.7883 40.373 40.6378C40.473 40.7399 40.8138 41.0213 40.8503 41.0774C40.9776 41.3986 41.5724 41.5598 41.5703 41.8072C41.3959 42.0163 41.2675 41.9964 41.1884 42.2923C41.1458 42.4515 40.7038 42.7301 40.5328 42.7213C40.3251 42.6232 40.2107 42.3229 39.8485 42.2202C39.6676 42.094 39.1827 41.6385 39.0265 41.4868L38.9987 41.5603C39.3026 41.8525 40.8807 43.7368 41.0412 44.0542L40.9957 44.0894L40.9333 43.9802C40.8637 43.9698 40.6406 43.9692 40.5722 44.0091C39.9412 44.3767 39.3474 44.8834 38.7349 45.2929C38.7173 45.3047 38.6917 45.333 38.6777 45.3478C38.7374 45.4796 38.8279 45.5995 38.8191 45.7232C36.6738 42.1558 34.8898 39.7266 31.1345 37.6791C31.1208 35.156 31.12 32.633 31.1319 30.1101L36.4005 30.1196C37.2506 30.1209 38.1088 30.1328 38.948 30.1021C41.3934 30.0124 42.9815 27.0823 41.1866 25.1848C40.0684 24.0027 38.7224 24.1999 37.2441 24.1854C36.27 24.1758 35.2778 24.2128 34.3154 24.1804C33.461 24.2342 32.5226 24.1479 31.6647 24.187C27.2999 24.3859 23.6756 22.7106 21.9466 18.4251C23.2981 18.3783 24.8729 18.41 26.234 18.4159Z" fill="#E71D36"/>
<path d="M21.6 18.4177C22.9515 18.371 24.5262 18.4027 25.8873 18.4085C27.8277 18.4568 29.8888 18.4208 31.8419 18.4288L33.3161 18.4344C33.4654 18.4346 33.9334 18.4245 34.0636 18.4427C33.8505 18.4883 33.3391 18.442 33.1516 18.4597C32.4708 18.5241 29.1695 18.387 28.7285 18.5291C28.7121 18.8039 28.8068 19.1266 28.8005 19.3702C28.795 19.5849 28.5991 20.0398 28.5658 20.2694C28.5243 20.555 28.595 20.892 28.5519 21.1725C28.4522 21.8233 28.2921 22.4681 28.207 23.1217C28.1752 23.3666 28.1881 23.3594 28.3847 23.4846C28.3975 23.6996 28.1688 23.7683 28.3701 23.9035C28.962 24.3008 33.8518 24.0298 33.9688 24.1731C33.1144 24.2268 32.176 24.1405 31.3181 24.1796C26.9532 24.3785 23.329 22.7032 21.6 18.4177Z" fill="#055D53"/>
<path d="M21.6343 22.4248C21.868 22.6202 22.3873 23.2965 22.6907 23.5781C24.2518 25.0269 25.5521 25.6724 27.5643 26.2425C27.5142 28.0675 27.539 29.9928 27.5393 31.8218L27.5392 43.1302C27.5371 44.8003 27.5704 46.5432 27.5364 48.2033C26.1807 47.8236 24.8112 46.8966 23.8595 45.8715C22.8399 44.7812 22.1346 43.4352 21.8186 41.9764C21.5623 40.7584 21.6294 39.2182 21.6303 37.9479L21.6251 33.4903L21.6078 26.5702C21.605 25.2113 21.5807 23.7765 21.6343 22.4248Z" fill="#E71D36"/>
<defs>
<linearGradient id="paint0_linear_2144_622" x1="4" y1="36" x2="50.8" y2="35.6" gradientUnits="userSpaceOnUse">
<stop stop-color="#01EDE3"/>
<stop offset="1" stop-color="#FBE765"/>
</linearGradient>
</defs>
</svg>
