<svg width="151" height="42" viewBox="0 0 151 42" fill="none" xmlns="http://www.w3.org/2000/svg">
<path d="M11.52 13.992C12.288 13.992 12.816 14.04 13.296 14.136V15.384H13.2C8.496 14.664 3.984 18.264 3.984 23.688V39H2.544V14.328H3.984V19.608H4.08C5.136 16.392 8.112 13.992 11.52 13.992ZM28.4483 20.712C28.4483 16.968 25.6163 15.24 21.8243 15.24C16.8803 15.24 14.2403 17.592 14.0003 21.288H12.5603C12.8003 17.88 14.9123 13.992 21.8243 13.992C26.2883 13.992 29.8883 15.864 29.8883 21.576V34.056C29.8883 35.976 29.6483 38.616 33.5363 37.8V39.048C32.9123 39.192 32.3363 39.24 31.9523 39.24C29.4563 39.24 28.4483 38.088 28.4483 34.968H28.3523C26.3843 38.232 23.2163 39.528 19.3283 39.528C14.6243 39.528 11.4083 36.984 11.4083 33C11.4083 28.392 14.2883 26.376 20.6243 25.416C24.3203 24.84 28.4483 24.936 28.4483 20.712ZM19.7123 38.28C25.7123 38.28 28.4483 34.248 28.4483 31.464V24.168C27.7283 25.752 24.7043 26.232 21.1043 26.664C16.4003 27.24 12.8483 28.632 12.8483 32.568C12.8483 36.36 15.2963 38.28 19.7123 38.28ZM35.1795 8.424C34.6515 8.424 33.9795 7.992 33.9795 7.272C33.9795 6.504 34.6515 6.12 35.1795 6.12C35.7555 6.12 36.3795 6.504 36.3795 7.272C36.3795 7.992 35.7555 8.424 35.1795 8.424ZM34.4595 14.328H35.8995V39H34.4595V14.328ZM49.9253 13.992C53.7652 13.992 57.3172 16.488 57.3172 21.336V39H55.8772V22.296C55.8772 18.648 54.6772 15.24 49.2532 15.24C43.7812 15.24 40.5652 19.368 40.5652 22.008V39H39.1252V14.328H40.5652V18.792H40.6612C42.1972 16.44 44.7412 13.992 49.9253 13.992ZM68.2391 5.88C64.8311 5.4 62.9111 5.688 62.9111 11.064V14.328H68.2391V15.576H62.9111V39H61.4711V15.576H57.9671V14.328H61.4711V10.68C61.4711 5.88 63.3431 4.392 66.3671 4.392C66.6071 4.392 67.4711 4.44 68.2391 4.632V5.88ZM77.9655 39.528C70.9575 39.528 66.6855 34.392 66.6855 26.76C66.6855 19.128 70.9575 13.992 77.9655 13.992C84.9735 13.992 89.2455 19.128 89.2455 26.76C89.2455 34.392 84.9735 39.528 77.9655 39.528ZM77.9655 38.28C84.2535 38.28 87.8055 33.432 87.8055 26.76C87.8055 20.088 84.2535 15.24 77.9655 15.24C71.6775 15.24 68.1255 20.088 68.1255 26.76C68.1255 33.432 71.6775 38.28 77.9655 38.28ZM99.6356 13.992C100.404 13.992 100.932 14.04 101.412 14.136V15.384H101.316C96.6116 14.664 92.0996 18.264 92.0996 23.688V39H90.6596V14.328H92.0996V19.608H92.1956C93.2516 16.392 96.2276 13.992 99.6356 13.992ZM110.804 38.28C116.516 38.28 118.82 34.248 119.396 31.608H120.836C119.78 36.12 116.564 39.528 110.804 39.528C103.94 39.528 99.6199 34.44 99.6199 26.76C99.6199 18.744 104.132 13.992 110.756 13.992C117.908 13.992 121.172 19.32 121.172 26.52H101.06V26.808C101.06 33.096 104.324 38.28 110.804 38.28ZM110.756 15.24C104.66 15.24 101.204 20.04 101.06 25.272H119.732C119.732 20.328 116.948 15.24 110.756 15.24ZM131.445 25.368C136.725 26.712 140.133 27.864 140.133 32.568C140.133 36.696 136.677 39.528 131.397 39.528C124.389 39.528 121.125 35.976 120.885 31.32H122.325C122.565 35.352 125.637 38.28 131.397 38.28C135.381 38.28 138.693 35.928 138.693 32.808C138.693 28.152 134.709 27.672 130.245 26.472C125.253 25.128 121.749 24.264 121.749 20.136C121.749 16.44 124.965 13.992 130.245 13.992C136.293 13.992 138.741 17.496 139.269 20.904H137.829C137.301 18.12 135.141 15.24 130.245 15.24C126.789 15.24 123.189 16.68 123.189 20.136C123.189 23.448 126.933 24.216 131.445 25.368ZM149.478 15.576H144.054V32.616C144.054 35.88 144.102 38.76 149.478 37.608V38.856C148.614 39.048 147.894 39.144 146.886 39.144C144.582 39.144 142.614 37.992 142.614 33V15.576H139.014V14.328H142.614V6.36H144.054V14.328H149.478V15.576Z" fill="white"/>
<circle cx="35.5" cy="5.5" r="5.5" fill="#E71D36"/>
</svg>
