<svg width="110" height="110" viewBox="0 0 110 110" fill="none" xmlns="http://www.w3.org/2000/svg">
<g clip-path="url(#clip0_2099_927)">
<path d="M110 55C110 24.6243 85.3757 0 55 0C24.6243 0 0 24.6243 0 55C0 85.3757 24.6243 110 55 110C85.3757 110 110 85.3757 110 55Z" fill="url(#paint0_radial_2099_927)"/>
<path d="M55 99C79.3005 99 99 79.3005 99 55C99 30.6995 79.3005 11 55 11C30.6995 11 11 30.6995 11 55C11 79.3005 30.6995 99 55 99Z" fill="white"/>
<path d="M70.9423 35.5042L68.858 35.5098C68.1004 35.5112 66.4799 35.6475 66.7821 34.5057C66.8803 34.135 70.7974 28.3761 71.4794 28.0046C72.6733 27.929 72.8465 28.7993 73.4733 29.6791C74.5221 31.1515 75.6035 32.6148 76.6072 34.1115C77.4457 35.5571 76.1105 35.5141 74.8422 35.5109L72.7765 35.5042L72.7784 41.5116C72.7784 47.2305 72.671 45.1012 69.0811 48.9736C69.4841 49.3471 69.9804 49.753 70.401 50.1294L73.2511 52.6902C74.0639 53.4116 76.2351 54.7671 75.3415 55.7694C74.5175 56.6938 73.286 55.1085 72.728 54.6298C71.0301 53.1735 69.4887 51.5492 67.7461 50.1477C67.194 50.7002 63.8489 54.1574 63.0745 53.9976C62.373 53.8529 62.2613 53.5378 62.396 52.9762C62.6056 52.1111 65.599 49.8781 66.4722 48.9736C63.9868 46.6441 61.3581 44.3981 58.8641 42.052C58.2256 41.4515 59.3724 40.2487 60.1357 40.9046C62.7056 43.1126 65.1577 45.6208 67.7461 47.7535C71.1679 44.4736 70.946 45.944 70.9449 41.5333L70.9423 35.5042ZM71.7897 30.4969C71.0428 31.5245 70.1597 32.6947 69.5302 33.7801H71.9479H74.1423C73.868 33.3857 71.978 30.6058 71.7897 30.4969Z" fill="#0F4D5C"/>
<path d="M42.3118 41.1247C40.3037 38.2161 38.1591 37.352 43.1562 36.911C49.1719 36.823 54.1901 39.023 57.0878 44.041C58.7692 46.7645 58.4517 49.7599 59.1538 52.713C59.6094 54.6295 60.3213 55.9753 61.1821 57.7472C63.005 61.5004 62.6759 65.0436 61.3514 68.7887L61.7311 68.7809C64.2896 68.7318 63.9046 69.2253 63.894 71.454C63.7942 72.7164 64.8136 74.2069 66.2151 74.5184C68.0369 74.9235 68.048 74.901 68.0517 76.6773L68.0533 80.3349C68.0539 83.685 67.6405 82.9264 64.0864 82.9259L37.4957 82.9252C32.1726 82.9448 33.156 83.5074 33.1539 78.5772C33.1537 77.9844 32.9838 75.5578 33.2916 75.1152C33.7078 74.5165 36.8668 74.6986 37.2096 71.4096C37.4609 68.9979 36.5795 68.7841 39.6524 68.7887C39.4189 68.01 39.1259 67.3118 38.9961 66.5015C38.2415 61.9361 40.3296 58.1464 44.2712 55.4637C44.9496 55.002 45.8451 53.7957 46.2223 53.0942C44.3648 53.6764 42.7811 53.3481 40.8846 52.9768C40.0861 53.4215 36.3749 55.9543 35.6935 55.9506C35.1639 55.9475 34.5026 55.0645 34.1597 54.7597L31.5891 52.5101C31.1085 52.0819 30.7194 51.6989 31.267 51.1425C33.23 49.1188 35.9541 46.8915 38.0903 44.9628L42.3118 41.1247ZM43.1562 38.6066C41.7001 38.6962 45.1298 40.4049 44.4509 41.4905C44.2522 41.8084 43.3431 42.5664 43.0004 42.8814L39.1393 46.3936C37.2383 48.1049 35.2505 50.0219 33.2959 51.6551C34.1811 52.3791 35.0825 53.1913 35.9052 53.9784C36.7382 53.4275 40.0501 51.049 41.0288 51.2541C42.7665 51.5623 44.6789 52.1775 46.2915 51.1857C47.1884 50.6342 47.6142 49.6298 47.3067 48.7017C46.7907 47.1433 50.4969 46.1396 48.7298 51.6443C47.6641 55.0462 46.8248 55.5831 44.2014 57.6318C42.74 58.773 41.8259 60.2434 41.2112 61.8743C40.3986 64.3832 40.6167 66.3831 41.6054 68.7887H59.3098C60.868 65.5157 61.0459 61.9297 59.572 58.5769C58.0853 55.2108 57.0564 53.4661 56.8221 49.5237C56.4467 43.2069 50.1308 37.7479 43.1562 38.6066ZM39.074 70.4752C39.0806 73.2224 38.0798 75.232 35.0194 76.3142V81.2268H62.1824H66.1727V76.3142C62.6984 75.2304 62.0034 73.5453 62.023 70.4752H39.074Z" fill="#0F4D5C"/>
<path d="M82.3584 54.4356C80.0872 54.6807 78.0297 53.2006 77.77 51.1347C77.5103 49.0689 79.1476 47.2049 81.421 46.9781C83.68 46.7525 85.7147 48.2296 85.9728 50.2826C86.2309 52.3355 84.6151 54.1919 82.3584 54.4356ZM81.5085 48.675C80.2661 48.8592 79.426 49.9278 79.6366 51.0563C79.8473 52.1847 81.0282 52.9415 82.2678 52.7425C83.4963 52.5455 84.3195 51.4839 84.1108 50.3659C83.9019 49.2478 82.7398 48.4925 81.5085 48.675Z" fill="#0F4D5C"/>
<path d="M82.2763 64.2587C80.0158 64.4742 77.9901 62.9855 77.748 60.9308C77.506 58.8761 79.1392 57.0311 81.3986 56.8067C83.665 56.5815 85.7019 58.0718 85.9446 60.1328C86.1873 62.1938 84.5436 64.0424 82.2763 64.2587ZM81.5954 58.4855C80.35 58.6083 79.4509 59.6269 79.5888 60.7589C79.7268 61.8908 80.8494 62.7058 82.094 62.5778C83.3346 62.4501 84.2275 61.4337 84.0901 60.3055C83.9525 59.1773 82.8367 58.3631 81.5954 58.4855Z" fill="#0F4D5C"/>
<path d="M69.8494 71.0626C69.1475 71.0665 68.5862 70.5034 68.9001 69.8581C69.0783 69.4916 74.047 64.9281 74.8727 64.6662C76.0728 64.6363 76.2187 65.5671 75.4057 66.2886L71.0013 70.1937C70.643 70.5125 70.3182 70.8931 69.8494 71.0626Z" fill="#0F4D5C"/>
</g>
<defs>
<radialGradient id="paint0_radial_2099_927" cx="0" cy="0" r="1" gradientUnits="userSpaceOnUse" gradientTransform="translate(55 10.45) rotate(117.094) scale(70.2602)">
<stop stop-color="#01EDE3"/>
<stop offset="1" stop-color="#E71D36"/>
</radialGradient>
<clipPath id="clip0_2099_927">
<rect width="110" height="110" fill="white"/>
</clipPath>
</defs>
</svg>
